<svg xmlns="http://www.w3.org/2000/svg" viewBox="0 0 420 420">
  <rect width="420" height="420" fill="#eef6ff"/>
  <circle cx="210" cy="210" r="195" fill="#256ab9"/>
  <g fill="#9ccbff" opacity="0.92">
    <circle cx="72" cy="90" r="11"/><circle cx="100" cy="70" r="9"/><circle cx="132" cy="80" r="12"/><circle cx="165" cy="66" r="8"/><circle cx="198" cy="79" r="11"/><circle cx="232" cy="67" r="8"/><circle cx="264" cy="79" r="12"/><circle cx="296" cy="66" r="8"/><circle cx="328" cy="82" r="11"/>
    <circle cx="55" cy="122" r="10"/><circle cx="86" cy="120" r="7"/><circle cx="118" cy="111" r="9"/><circle cx="150" cy="122" r="11"/><circle cx="182" cy="113" r="8"/><circle cx="214" cy="121" r="10"/><circle cx="247" cy="112" r="8"/><circle cx="279" cy="123" r="10"/><circle cx="310" cy="113" r="8"/><circle cx="342" cy="126" r="11"/>
    <circle cx="48" cy="156" r="9"/><circle cx="79" cy="154" r="12"/><circle cx="110" cy="148" r="8"/><circle cx="142" cy="158" r="10"/><circle cx="174" cy="149" r="12"/><circle cx="206" cy="157" r="8"/><circle cx="238" cy="149" r="10"/><circle cx="270" cy="157" r="12"/><circle cx="302" cy="149" r="8"/><circle cx="334" cy="158" r="10"/><circle cx="362" cy="155" r="8"/>
  </g>
  <g fill="#e6f3ff" opacity="0.82">
    <circle cx="101" cy="96" r="5"/><circle cx="151" cy="94" r="4"/><circle cx="201" cy="91" r="5"/><circle cx="251" cy="95" r="4"/><circle cx="301" cy="92" r="5"/>
    <circle cx="74" cy="173" r="4"/><circle cx="123" cy="173" r="5"/><circle cx="172" cy="173" r="4"/><circle cx="221" cy="173" r="5"/><circle cx="270" cy="173" r="4"/><circle cx="319" cy="173" r="5"/>
    <circle cx="96" cy="249" r="5"/><circle cx="147" cy="249" r="4"/><circle cx="198" cy="249" r="5"/><circle cx="249" cy="249" r="4"/><circle cx="300" cy="249" r="5"/>
  </g>
  <text x="210" y="246" text-anchor="middle" font-size="170" font-family="Arial, sans-serif" font-weight="700" fill="#143e7a">8</text>
</svg>
