<svg xmlns="http://www.w3.org/2000/svg" viewBox="0 0 420 420">
  <rect width="420" height="420" fill="#fff1f1"/>
  <circle cx="210" cy="210" r="195" fill="#db5960"/>
  <g fill="#f5b3b7" opacity="0.92">
    <circle cx="72" cy="88" r="10"/><circle cx="100" cy="68" r="8"/><circle cx="132" cy="80" r="12"/><circle cx="165" cy="66" r="8"/><circle cx="198" cy="79" r="11"/><circle cx="232" cy="67" r="8"/><circle cx="264" cy="79" r="12"/><circle cx="296" cy="66" r="8"/><circle cx="328" cy="82" r="10"/>
    <circle cx="55" cy="122" r="10"/><circle cx="86" cy="120" r="7"/><circle cx="118" cy="111" r="9"/><circle cx="150" cy="122" r="11"/><circle cx="182" cy="113" r="8"/><circle cx="214" cy="121" r="10"/><circle cx="247" cy="112" r="8"/><circle cx="279" cy="123" r="10"/><circle cx="310" cy="113" r="8"/><circle cx="342" cy="126" r="11"/>
  </g>
  <g fill="#ffe8ea" opacity="0.84">
    <circle cx="100" cy="95" r="5"/><circle cx="150" cy="93" r="4"/><circle cx="200" cy="91" r="5"/><circle cx="250" cy="94" r="4"/><circle cx="300" cy="92" r="5"/>
  </g>
  <text x="210" y="246" text-anchor="middle" font-size="164" font-family="Arial, sans-serif" font-weight="700" fill="#821b24">42</text>
</svg>